<svg xmlns="http://www.w3.org/2000/svg" width="1200" height="750" viewBox="0 0 1200 750">
  <defs>
    <linearGradient id="g2" x1="0" y1="0" x2="1" y2="1">
      <stop offset="0" stop-color="#0a6f67"/>
      <stop offset="1" stop-color="#14141b"/>
    </linearGradient>
    <linearGradient id="card" x1="0" y1="0" x2="0" y2="1">
      <stop offset="0" stop-color="#ffffff" stop-opacity="0.08"/>
      <stop offset="1" stop-color="#ffffff" stop-opacity="0.02"/>
    </linearGradient>
  </defs>
  <rect x="0" y="0" width="1200" height="750" fill="url(#g2)"/>
  <rect x="70" y="70" width="1060" height="610" rx="20" fill="#0f0f14" opacity="0.55"/>
  <rect x="110" y="110" width="980" height="530" rx="18" fill="#14141b" opacity="0.92"/>
  <rect x="150" y="150" width="900" height="260" rx="14" fill="#1f1f28" opacity="0.9"/>
  <rect x="170" y="175" width="360" height="22" rx="11" fill="#ffffff" opacity="0.18"/>
  <rect x="170" y="210" width="520" height="14" rx="7" fill="#ffffff" opacity="0.10"/>
  <rect x="170" y="235" width="470" height="14" rx="7" fill="#ffffff" opacity="0.10"/>
  <rect x="170" y="268" width="180" height="40" rx="20" fill="#00ff99" opacity="0.82"/>
  <rect x="150" y="430" width="560" height="180" rx="14" fill="url(#card)"/>
  <rect x="730" y="430" width="320" height="180" rx="14" fill="#ffffff" opacity="0.06"/>
  <rect x="180" y="460" width="220" height="16" rx="8" fill="#ffffff" opacity="0.16"/>
  <rect x="180" y="486" width="300" height="12" rx="6" fill="#ffffff" opacity="0.10"/>
  <rect x="180" y="506" width="260" height="12" rx="6" fill="#ffffff" opacity="0.10"/>
  <rect x="760" y="460" width="240" height="120" rx="12" fill="#0a6f67" opacity="0.55"/>
</svg>
