<svg xmlns="http://www.w3.org/2000/svg" width="1200" height="750" viewBox="0 0 1200 750">
  <defs>
    <linearGradient id="g3" x1="0" y1="0" x2="1" y2="1">
      <stop offset="0" stop-color="#1b1b22"/>
      <stop offset="1" stop-color="#0a6f67"/>
    </linearGradient>
    <linearGradient id="card" x1="0" y1="0" x2="0" y2="1">
      <stop offset="0" stop-color="#ffffff" stop-opacity="0.08"/>
      <stop offset="1" stop-color="#ffffff" stop-opacity="0.02"/>
    </linearGradient>
  </defs>
  <rect x="0" y="0" width="1200" height="750" fill="url(#g3)"/>
  <rect x="70" y="70" width="1060" height="610" rx="20" fill="#0f0f14" opacity="0.55"/>
  <rect x="110" y="110" width="980" height="530" rx="18" fill="#14141b" opacity="0.92"/>

  <rect x="150" y="150" width="900" height="310" rx="14" fill="#0f0f14" opacity="0.55"/>
  <rect x="170" y="178" width="360" height="22" rx="11" fill="#ffffff" opacity="0.18"/>
  <rect x="170" y="212" width="620" height="14" rx="7" fill="#ffffff" opacity="0.10"/>
  <rect x="170" y="236" width="560" height="14" rx="7" fill="#ffffff" opacity="0.10"/>
  <rect x="170" y="265" width="140" height="36" rx="18" fill="#00ff99" opacity="0.82"/>

  <rect x="150" y="480" width="420" height="160" rx="14" fill="url(#card)"/>
  <rect x="590" y="480" width="460" height="160" rx="14" fill="#ffffff" opacity="0.06"/>
  <rect x="180" y="510" width="240" height="14" rx="7" fill="#ffffff" opacity="0.16"/>
  <rect x="180" y="534" width="300" height="10" rx="5" fill="#ffffff" opacity="0.10"/>
  <rect x="620" y="510" width="320" height="10" rx="5" fill="#ffffff" opacity="0.12"/>
  <rect x="620" y="528" width="280" height="10" rx="5" fill="#ffffff" opacity="0.10"/>
  <rect x="620" y="546" width="240" height="10" rx="5" fill="#ffffff" opacity="0.10"/>
</svg>
