<svg xmlns="http://www.w3.org/2000/svg" viewBox="0 0 32 32"><path d="M16 2C8.3 2 2 8.3 2 16s6.3 14 14 14 14-6.3 14-14S23.7 2 16 2zm0 3a11 11 0 110 22 11 11 0 010-22z" fill="#767678"/><circle cx="16" cy="9" r="2" fill="#767678"/><circle cx="10.5" cy="13" r="2" fill="#767678"/><circle cx="21.5" cy="13" r="2" fill="#767678"/><circle cx="16" cy="21" r="2" fill="#767678"/><path d="M14.2 10.8l-2.2 1.2m7.8-1.2l2.2 1.2M14.2 19.2l-2.2-1.2m7.8 1.2l2.2-1.2" stroke="#767678" stroke-width="1.2" stroke-linecap="round"/></svg>
