<svg xmlns="http://www.w3.org/2000/svg" width="20" height="20" viewBox="0 0 24 24" fill="none">
  <path d="M9 19c-3 1-3-1.5-4-2" stroke="#00ff99" stroke-width="1.9" stroke-linecap="round"/>
  <path d="M15 19v-2.4c0-.7.2-1.2.6-1.6 2-.2 4-.9 4-4.5 0-1-.4-1.9-1.1-2.6.1-.3.5-1.4-.1-2.8 0 0-.9-.3-3 .9-.8-.2-1.7-.3-2.5-.3s-1.7.1-2.5.3c-2.1-1.2-3-.9-3-.9-.6 1.4-.2 2.5-.1 2.8-.7.7-1.1 1.6-1.1 2.6 0 3.6 2 4.3 4 4.5.3.3.5.8.5 1.6V19" stroke="#00ff99" stroke-width="1.9" stroke-linecap="round" stroke-linejoin="round"/>
</svg>
