<svg xmlns="http://www.w3.org/2000/svg" width="20" height="20" viewBox="0 0 24 24" fill="none">
  <path d="M20 7.2c-.6.3-1.3.5-2 .6.7-.4 1.2-1.1 1.5-1.9-.7.4-1.4.7-2.2.8A3.2 3.2 0 0 0 11.9 9c0 .2 0 .5.1.7-2.7-.1-5.1-1.4-6.7-3.5-.3.5-.4 1.1-.4 1.7 0 1.1.6 2.1 1.6 2.7-.5 0-1-.2-1.5-.4v.1c0 1.6 1.2 3 2.7 3.3-.3.1-.6.1-.9.1-.2 0-.4 0-.6-.1.4 1.4 1.8 2.4 3.4 2.4A6.5 6.5 0 0 1 4 18.2 9.2 9.2 0 0 0 9 19.7c6 0 9.3-5.1 9.3-9.6v-.4c.6-.5 1.2-1.1 1.7-1.8Z" stroke="#00ff99" stroke-width="1.6" stroke-linecap="round" stroke-linejoin="round"/>
</svg>
